<?xml version="1.0" encoding="iso-8859-1"?>
<!-- Generator: Adobe Illustrator 18.1.1, SVG Export Plug-In . SVG Version: 6.00 Build 0)  -->
<svg version="1.1" id="Capa_1" xmlns="http://www.w3.org/2000/svg" xmlns:xlink="http://www.w3.org/1999/xlink" x="0px" y="0px"
	 viewBox="0 0 201.561 201.561" style="enable-background:new 0 0 201.561 201.561;" xml:space="preserve">
<g>
	<g>
		<path style="fill:#010002;" d="M151.582,31.866H53.955c-10.246,0-18.589,8.349-18.589,18.596v97.627
			c0,10.25,8.342,18.599,18.589,18.599h97.627c10.243,0,18.592-8.349,18.592-18.599V50.462
			C170.178,40.216,161.828,31.866,151.582,31.866z M151.582,160.68H53.955c-6.936,0-12.587-5.647-12.587-12.594V50.462
			c0-6.936,5.647-12.594,12.587-12.594h97.627c6.936,0,12.587,5.655,12.587,12.594v97.627
			C164.169,155.032,158.522,160.68,151.582,160.68z"/>
		<path style="fill:#010002;" d="M180.557,61.027h17.987c1.661,0,3.01-1.349,3.01-3.003c0-1.653-1.349-3.003-3.01-3.003h-17.987
			c-1.653,0-3.003,1.349-3.003,3.003C177.554,59.677,178.903,61.027,180.557,61.027z"/>
		<path style="fill:#010002;" d="M198.544,71.398h-17.987c-1.653,0-3.003,1.342-3.003,2.999s1.349,3.003,3.003,3.003h17.987
			c1.661,0,3.01-1.346,3.01-3.003C201.554,72.74,200.204,71.398,198.544,71.398z"/>
		<path style="fill:#010002;" d="M198.544,88.083h-17.987c-1.653,0-3.003,1.342-3.003,3.01c0,1.653,1.349,2.999,3.003,2.999h17.987
			c1.661,0,3.01-1.342,3.01-2.999C201.554,89.428,200.204,88.083,198.544,88.083z"/>
		<path style="fill:#010002;" d="M198.544,104.452h-17.987c-1.653,0-3.003,1.353-3.003,3.017c0,1.653,1.349,2.992,3.003,2.992
			h17.987c1.661,0,3.01-1.338,3.01-2.992C201.554,105.805,200.204,104.452,198.544,104.452z"/>
		<path style="fill:#010002;" d="M198.544,119.566h-17.987c-1.653,0-3.003,1.349-3.003,3.006c0,1.664,1.349,3.003,3.003,3.003
			h17.987c1.661,0,3.01-1.338,3.01-3.003C201.554,120.915,200.204,119.566,198.544,119.566z"/>
		<path style="fill:#010002;" d="M198.544,135.936h-17.987c-1.653,0-3.003,1.353-3.003,3.006c0,1.664,1.349,3.017,3.003,3.017
			h17.987c1.661,0,3.01-1.353,3.01-3.017C201.554,137.288,200.204,135.936,198.544,135.936z"/>
		<path style="fill:#010002;" d="M20.986,55.018H3.01c-1.657,0-3.003,1.349-3.003,3.003c0,1.653,1.346,3.003,3.003,3.003h17.977
			c1.664,0,3.01-1.349,3.01-3.003C23.996,56.367,22.651,55.018,20.986,55.018z"/>
		<path style="fill:#010002;" d="M20.986,71.398H3.01c-1.657,0-3.003,1.342-3.003,2.999S1.353,77.4,3.01,77.4h17.977
			c1.664,0,3.01-1.346,3.01-3.003C23.996,72.74,22.651,71.398,20.986,71.398z"/>
		<path style="fill:#010002;" d="M20.986,88.083H3.01c-1.657,0-3.003,1.342-3.003,3.01c0,1.653,1.346,2.999,3.003,2.999h17.977
			c1.664,0,3.01-1.342,3.01-2.999C23.996,89.428,22.651,88.083,20.986,88.083z"/>
		<path style="fill:#010002;" d="M20.986,104.452H3.01c-1.657,0-3.003,1.353-3.003,3.017c0,1.653,1.346,2.992,3.003,2.992h17.977
			c1.664,0,3.01-1.338,3.01-2.992C23.996,105.805,22.651,104.452,20.986,104.452z"/>
		<path style="fill:#010002;" d="M20.986,119.566H3.01c-1.657,0-3.003,1.349-3.003,3.006c0,1.664,1.346,3.003,3.003,3.003h17.977
			c1.664,0,3.01-1.338,3.01-3.003C23.996,120.915,22.651,119.566,20.986,119.566z"/>
		<path style="fill:#010002;" d="M20.986,135.936H3.01c-1.657,0-3.003,1.353-3.003,3.006c0,1.664,1.346,3.017,3.003,3.017h17.977
			c1.664,0,3.01-1.353,3.01-3.017C23.996,137.288,22.651,135.936,20.986,135.936z"/>
		<path style="fill:#010002;" d="M143.229,177.558c-1.657,0-3.006,1.353-3.006,3.017v17.98c0,1.653,1.349,3.006,3.006,3.006
			s3.01-1.353,3.01-3.006v-17.98C146.239,178.91,144.886,177.558,143.229,177.558z"/>
		<path style="fill:#010002;" d="M126.852,177.558c-1.65,0-2.999,1.353-2.999,3.017v17.98c0,1.653,1.349,3.006,2.999,3.006
			c1.664,0,3.013-1.353,3.013-3.006v-17.98C129.866,178.91,128.517,177.558,126.852,177.558z"/>
		<path style="fill:#010002;" d="M110.175,177.558c-1.661,0-3.01,1.353-3.01,3.017v17.98c0,1.653,1.349,3.006,3.01,3.006
			c1.657,0,2.999-1.353,2.999-3.006v-17.98C113.174,178.91,111.832,177.558,110.175,177.558z"/>
		<path style="fill:#010002;" d="M93.798,177.558c-1.661,0-3.006,1.353-3.006,3.017v17.98c0,1.653,1.346,3.006,3.006,3.006
			c1.653,0,3.003-1.353,3.003-3.006v-17.98C96.804,178.91,95.452,177.558,93.798,177.558z"/>
		<path style="fill:#010002;" d="M78.692,177.558c-1.664,0-3.01,1.353-3.01,3.017v17.98c0,1.653,1.342,3.006,3.01,3.006
			c1.65,0,2.999-1.353,2.999-3.006v-17.98C81.691,178.91,80.342,177.558,78.692,177.558z"/>
		<path style="fill:#010002;" d="M62.315,177.558c-1.661,0-3.01,1.353-3.01,3.017v17.98c0,1.653,1.349,3.006,3.01,3.006
			c1.653,0,2.999-1.353,2.999-3.006v-17.98C65.314,178.91,63.968,177.558,62.315,177.558z"/>
		<path style="fill:#010002;" d="M143.229,23.996c1.657,0,3.01-1.342,3.01-3.003V3.01c0-1.657-1.353-3.01-3.01-3.01
			s-3.006,1.349-3.006,3.01v17.98C140.223,22.651,141.572,23.996,143.229,23.996z"/>
		<path style="fill:#010002;" d="M126.852,23.996c1.664,0,3.013-1.342,3.013-3.003V3.01c0-1.657-1.349-3.01-3.013-3.01
			c-1.65,0-2.999,1.349-2.999,3.01v17.98C123.853,22.651,125.203,23.996,126.852,23.996z"/>
		<path style="fill:#010002;" d="M110.175,23.996c1.657,0,2.999-1.342,2.999-3.003V3.01c0-1.657-1.342-3.01-2.999-3.01
			c-1.661,0-3.01,1.349-3.01,3.01v17.98C107.165,22.651,108.514,23.996,110.175,23.996z"/>
		<path style="fill:#010002;" d="M93.798,23.996c1.653,0,3.003-1.342,3.003-3.003V3.01c0-1.657-1.349-3.01-3.003-3.01
			c-1.661,0-3.006,1.349-3.006,3.01v17.98C90.792,22.651,92.138,23.996,93.798,23.996z"/>
		<path style="fill:#010002;" d="M78.692,23.996c1.65,0,2.999-1.342,2.999-3.003V3.01c0-1.657-1.349-3.01-2.999-3.01
			c-1.664,0-3.01,1.349-3.01,3.01v17.98C75.682,22.651,77.028,23.996,78.692,23.996z"/>
		<path style="fill:#010002;" d="M62.315,23.996c1.653,0,2.999-1.342,2.999-3.003V3.01c0-1.657-1.342-3.01-2.999-3.01
			c-1.661,0-3.01,1.349-3.01,3.01v17.98C59.305,22.651,60.654,23.996,62.315,23.996z"/>
		<path style="fill:#010002;" d="M63.396,49.678c-3.275,0-5.93,2.663-5.93,5.93s2.656,5.923,5.93,5.923
			c3.264,0,5.927-2.656,5.927-5.923C69.319,52.341,66.66,49.678,63.396,49.678z"/>
		<path style="fill:#010002;" d="M72.024,128.746h62.15V66.005h-62.15V128.746z M127.704,72.468v49.807H78.488V72.468H127.704z"/>
	</g>
</g>
<g>
</g>
<g>
</g>
<g>
</g>
<g>
</g>
<g>
</g>
<g>
</g>
<g>
</g>
<g>
</g>
<g>
</g>
<g>
</g>
<g>
</g>
<g>
</g>
<g>
</g>
<g>
</g>
<g>
</g>
</svg>
