<svg id="Layer_1" enable-background="new 0 0 512 512" height="512" viewBox="0 0 512 512" width="512" xmlns="http://www.w3.org/2000/svg"><g id="XMLID_2123_"><g id="XMLID_197_"><path id="XMLID_606_" d="m443.129 340.017c6.53-8.539 10.42-19.199 10.42-30.754v-17.713c0-27.977-22.761-50.737-50.737-50.737s-50.737 22.761-50.737 50.737v17.713c0 11.548 3.885 22.201 10.407 30.737h-56.761c13.713-13.117 22.279-31.571 22.279-52v-46.05c0-39.701-32.299-72-72-72s-72 32.299-72 72v46.05c0 20.429 8.566 38.883 22.278 52h-56.761c6.522-8.537 10.407-19.19 10.407-30.737v-17.713c0-27.977-22.761-50.737-50.737-50.737s-50.737 22.76-50.737 50.737v17.713c0 11.556 3.891 22.215 10.42 30.754-38.036.366-68.87 31.408-68.87 69.529v37.87c0 5.522 4.478 10 10 10h80v44.584c0 5.522 4.478 10 10 10h28.001c5.522 0 10-4.478 10-10s-4.478-10-10-10h-18.001v-48.72c0-43.706 33.85-79.63 76.706-82.997l54.35 131.717h-23.061c-5.522 0-10 4.478-10 10s4.478 10 10 10h194.005c5.522 0 10-4.478 10-10v-44.584h80c5.522 0 10-4.478 10-10v-37.87c0-38.121-30.834-69.163-68.871-69.529zm-71.054-30.754v-17.713c0-16.948 13.789-30.737 30.737-30.737s30.737 13.789 30.737 30.737v17.713c0 16.948-13.789 30.737-30.737 30.737s-30.737-13.789-30.737-30.737zm-116.075-119.313c28.673 0 52 23.327 52 52v.1h-.043c-16.55 0-32.622-4.794-46.481-13.862-3.326-2.178-7.625-2.178-10.951 0-13.859 9.068-29.932 13.862-46.481 13.862h-.044v-.1c0-28.673 23.327-52 52-52zm-52 98.05v-25.95h.043c18.306 0 36.137-4.745 51.957-13.776 15.82 9.031 33.651 13.776 51.957 13.776h.043v25.95c0 28.673-23.327 52-52 52s-52-23.327-52-52zm-125.55 3.55c0-16.948 13.789-30.737 30.737-30.737s30.737 13.789 30.737 30.737v17.713c0 16.948-13.789 30.737-30.737 30.737s-30.737-13.789-30.737-30.737zm11.72 145.866h-70.17v-27.87c0-27.319 22.227-49.546 49.546-49.546h62.726c-24.136 17.729-40.316 45.679-42.102 77.416zm118.205-77.416h37.625v24c0 5.522 4.478 10 10 10s10-4.478 10-10v-24h37.625.15l-47.775 115.783-47.775-115.783zm193.625 132h-131.056l54.35-131.716c42.856 3.366 76.706 39.29 76.706 82.996zm90-54.584h-70.17c-1.786-31.737-17.966-59.687-42.102-77.416h62.726c27.319 0 49.546 22.227 49.546 49.546z"/><path id="XMLID_619_" d="m187.303 77.045 23.87 17.264-9.13 27.892c-2.703 8.259.093 16.896 7.124 22.004 7.03 5.108 16.109 5.099 23.128-.025l23.705-17.303 23.705 17.302c3.516 2.566 7.547 3.85 11.581 3.85 4.018 0 8.038-1.275 11.547-3.824 7.031-5.107 9.827-13.745 7.124-22.005l-9.13-27.891 23.87-17.264c7.034-5.087 9.852-13.711 7.178-21.97-2.674-8.258-10.01-13.594-18.689-13.594h-29.48l-9.012-27.879c-2.673-8.263-10.009-13.602-18.694-13.602s-16.021 5.339-18.693 13.603l-9.012 27.879h-29.48c-8.68 0-16.016 5.336-18.689 13.594-2.675 8.258.143 16.882 7.177 21.969zm48.269-15.564c4.338 0 8.181-2.797 9.516-6.924l10.914-33.755 10.91 33.755c1.335 4.127 5.178 6.924 9.516 6.924l35.657.003-28.893 20.895c-3.523 2.549-4.996 7.082-3.644 11.215l11.054 33.778-28.707-20.953c-1.756-1.282-3.826-1.923-5.896-1.923s-4.14.641-5.896 1.923l-28.71 20.952 11.057-33.777c1.353-4.133-.12-8.666-3.644-11.215l-28.892-20.897h35.658z"/><path id="XMLID_620_" d="m173 492c-2.63 0-5.21 1.069-7.07 2.93s-2.93 4.44-2.93 7.07 1.069 5.21 2.93 7.069c1.86 1.86 4.44 2.931 7.07 2.931s5.21-1.07 7.069-2.931c1.861-1.859 2.931-4.439 2.931-7.069s-1.07-5.21-2.931-7.07c-1.859-1.861-4.439-2.93-7.069-2.93z"/></g></g></svg>