<?xml version="1.0" encoding="iso-8859-1"?>
<!-- Generator: Adobe Illustrator 19.0.0, SVG Export Plug-In . SVG Version: 6.00 Build 0)  -->
<svg version="1.1" id="Capa_1" xmlns="http://www.w3.org/2000/svg" xmlns:xlink="http://www.w3.org/1999/xlink" x="0px" y="0px"
	 viewBox="0 0 480.003 480.003" style="enable-background:new 0 0 480.003 480.003;" xml:space="preserve">
<g>
	<g>
		<path d="M120.002,16.003c-3.992,0-8.008,0.536-12,1.6c-11.856-11.24-27.616-17.6-44-17.6c-35.288,0-64,28.712-64,64
			c0,4.424,3.576,8,8,8h152c4.424,0,8-3.576,8-8C168.002,37.531,146.474,16.003,120.002,16.003z M16.666,56.011v-0.008
			c3.824-22.672,23.592-40,47.336-40c13.592,0,26.632,5.856,35.768,16.072c2.208,2.48,5.728,3.328,8.824,2.144
			c19.088-7.32,37.944,4.528,42.4,21.792H16.666z"/>
	</g>
</g>
<g>
	<g>
		<rect x="120.002" y="88.003" width="16" height="16"/>
	</g>
</g>
<g>
	<g>
		<rect x="152.002" y="88.003" width="16" height="16"/>
	</g>
</g>
<g>
	<g>
		<rect x="184.002" y="88.003" width="16" height="16"/>
	</g>
</g>
<g>
	<g>
		<path d="M376.002,237.555c0-11.792-8.44-21.744-20.056-23.672l-26.48-4.416l5.088-25.464h65.448v48h16v-56v-32V76.947
			l59.576-29.792c2.712-1.352,4.424-4.12,4.424-7.152s-1.712-5.8-4.424-7.16l-64-32c-2.488-1.232-5.432-1.112-7.784,0.352
			s-3.792,4.032-3.792,6.808v64v64h-60.32c7.632-8.504,12.32-19.696,12.32-32c0-26.472-21.528-48-48-48s-48,21.528-48,48
			c0,14.368,6.376,27.248,16.408,36.048l-68.92,61.264l-44.744,22.368l-22.944-3.824c9.912-8.8,16.2-21.592,16.2-35.856
			c0-26.472-21.528-48-48-48s-48,21.528-48,48c0,14.6,6.576,27.68,16.896,36.488c-0.112,0.224-0.272,0.4-0.36,0.632l-24.8,64.48
			c-4.536,11.816-3.312,24.752,3.368,35.496c1.272,2.048,2.752,3.896,4.32,5.648L33.65,363.043L2.346,394.347
			c-3.128,3.128-3.128,8.184,0,11.312l24,24c1.56,1.56,3.608,2.344,5.656,2.344s4.096-0.784,5.656-2.344l40-40
			c0.376-0.376,0.712-0.784,1-1.216l30.728-46.096l10.616,0.96v32.696h-8c-4.424,0-8,3.576-8,8v57.632l-97.8,22.568
			c-3.632,0.84-6.2,4.072-6.2,7.8v8h16v-1.632l97.8-22.568c3.632-0.84,6.2-4.072,6.2-7.8v-56h8h40h72
			c2.264,0,4.432-0.96,5.944-2.648l69.616-77.352h12.44h40h112v-16h-104V237.555z M416.002,20.947l38.112,19.056l-38.112,19.056
			V20.947z M272.002,104.003c0-17.648,14.352-32,32-32s32,14.352,32,32s-14.352,32-32,32S272.002,121.651,272.002,104.003z
			 M260.722,171.843l-12.168,31.632l-22.6,17.04l-7.44-11.16L260.722,171.843z M72.002,184.003c0-17.648,14.352-32,32-32
			s32,14.352,32,32s-14.352,32-32,32S72.002,201.651,72.002,184.003z M65.786,378.907l-33.784,33.784l-12.688-12.688l26.344-26.344
			c0.464-0.464,0.864-0.976,1.2-1.536l21.48-35.8c4.072,1.864,8.48,3.064,13.104,3.488l9.808,0.888L65.786,378.907z
			 M160.002,376.003h-24v-40c0-4.144-3.16-7.592-7.272-7.968l-45.832-4.168c-7.56-0.688-14.192-4.776-18.208-11.224
			c-4.008-6.448-4.744-14.2-2.016-21.288l22.824-59.352h25.84l47.352,7.888c1.672,0.272,3.384,0.016,4.888-0.736l41.68-20.84
			l7.328,10.992l-46.712,26.696h-37.872c-3.672,0-6.864,2.496-7.76,6.064l-8,32c-0.544,2.168-0.16,4.456,1.072,6.32
			c1.216,1.864,3.168,3.144,5.376,3.504l34.632,5.776c3.864,0.64,6.68,3.96,6.68,7.888V376.003z M320.002,296.003h-8
			c-2.264,0-4.432,0.96-5.944,2.648l-69.616,77.352h-60.44v-58.448c0-11.792-8.44-21.744-20.056-23.672l-26.088-4.352l4.392-17.528
			h33.752c1.392,0,2.76-0.368,3.968-1.056l56-32c0.12-0.072,0.192-0.2,0.312-0.272c0.168-0.112,0.368-0.16,0.536-0.28l16.712-12.6
			c0.792,5.336,2.616,10.536,5.576,15.304c1.272,2.048,2.752,3.896,4.32,5.648l-21.776,36.296l-31.304,31.304
			c-3.128,3.128-3.128,8.184,0,11.312l24,24c1.56,1.56,3.608,2.344,5.656,2.344c2.048,0,4.096-0.784,5.656-2.344l40-40
			c0.376-0.376,0.712-0.784,1-1.216l30.728-46.096l10.616,0.96V296.003z M268.338,256.323c4.072,1.864,8.48,3.064,13.104,3.488
			l9.808,0.888l-25.472,38.208l-33.776,33.784l-12.688-12.688l26.344-26.344c0.464-0.464,0.864-0.976,1.2-1.536L268.338,256.323z
			 M360.002,296.003h-24v-40c0-4.144-3.16-7.592-7.272-7.968l-45.832-4.168c-7.56-0.688-14.192-4.776-18.208-11.224
			c-4.008-6.448-4.744-14.2-2.016-21.288l22.824-59.352h114.504v16h-72c-3.816,0-7.096,2.696-7.84,6.432l-8,40
			c-0.424,2.128,0.032,4.328,1.256,6.12c1.232,1.784,3.136,2.984,5.272,3.344l34.632,5.776c3.864,0.632,6.68,3.952,6.68,7.88
			V296.003z"/>
	</g>
</g>
<g>
</g>
<g>
</g>
<g>
</g>
<g>
</g>
<g>
</g>
<g>
</g>
<g>
</g>
<g>
</g>
<g>
</g>
<g>
</g>
<g>
</g>
<g>
</g>
<g>
</g>
<g>
</g>
<g>
</g>
</svg>
