<svg id="Layer_3" height="512" viewBox="0 0 64 64" width="512" xmlns="http://www.w3.org/2000/svg" data-name="Layer 3"><path d="m13 19h8v2h-8z"/><path d="m23 19h8v2h-8z"/><path d="m43 20a3 3 0 0 1 -3 3h-37v31a3 3 0 0 0 3 3h52a3 3 0 0 0 3-3v-35h-18zm-11 14a3 3 0 0 1 6 0 5.868 5.868 0 0 1 -1.707 4.121l-.879.879h2.586v2h-5a1 1 0 0 1 -.707-1.707l2.586-2.586a3.853 3.853 0 0 0 1.121-2.707 1 1 0 0 0 -2 0v1h-2zm-22-1h1.262a7.922 7.922 0 0 1 .787-1.951l-1.049-1.049 3-3 1.049 1.049a7.922 7.922 0 0 1 1.951-.787v-1.262h4v1.262a7.922 7.922 0 0 1 1.951.787l1.049-1.049 3 3-1.049 1.049a7.922 7.922 0 0 1 .787 1.951h1.262v4h-1.262a7.922 7.922 0 0 1 -.787 1.951l1.049 1.049-3 3-1.049-1.049a7.922 7.922 0 0 1 -1.951.787v1.262h-4v-1.262a7.922 7.922 0 0 1 -1.951-.787l-1.049 1.049-3-3 1.049-1.049a7.922 7.922 0 0 1 -.787-1.951h-1.262zm0 19a2 2 0 0 1 0-4h10v4zm46-2a2 2 0 0 1 -2 2h-32v-4h32a2 2 0 0 1 2 2zm-1-11h-2v-2h2zm-1.1-6.553-4 8-1.79-.894 4-8zm-6.9.553h2v2h-2zm-2 1v4a3 3 0 0 1 -6 0v-4a3 3 0 0 1 6 0z"/><path d="m41 34v4a1 1 0 0 0 2 0v-4a1 1 0 0 0 -2 0z"/><path d="m3 19h8v2h-8z"/><path d="m58 7h-52a3 3 0 0 0 -3 3v7h58v-7a3 3 0 0 0 -3-3zm-10 7a2 2 0 1 1 2-2 2 2 0 0 1 -2 2zm8 0a2 2 0 1 1 2-2 2 2 0 0 1 -2 2z"/><path d="m41 20v-1h-8v2h7a1 1 0 0 0 1-1z"/><circle cx="19" cy="35" r="4"/></svg>